<?xml version="1.0" encoding="utf-8"?>
<!-- Generator: Adobe Illustrator 16.0.4, SVG Export Plug-In . SVG Version: 6.00 Build 0)  -->
<svg version="1.2" baseProfile="tiny" id="svg2" xmlns="http://www.w3.org/2000/svg" xmlns:xlink="http://www.w3.org/1999/xlink"
	 x="0px" y="0px" width="96.794px" height="96.793px" viewBox="0 0 96.794 96.793" xml:space="preserve">
<circle fill="#2375BB" cx="48.397" cy="48.397" r="47.913"/>
<g id="g2476" transform="translate(497.6671,78.1109)">
	<path id="path2478" fill="#FFFFFF" d="M-442.67-36.895c0-3.825-2.706-4.363-5.87-4.363h-7.337v8.765h7.337
		C-444.371-32.492-442.67-33.999-442.67-36.895"/>
</g>
<g id="g2480" transform="translate(496.3215,76.0228)">
	<path id="path2482" fill="#FFFFFF" d="M-446.153-27.315h-8.382v9.541h9.192c3.168,0,5.174-1.934,5.174-4.944
		C-440.168-26.31-443.064-27.315-446.153-27.315"/>
</g>
<g id="g2484" transform="translate(495.8276,89.5985)">
	<path id="path2486" fill="#FFFFFF" d="M-447.431-89.599c-26.729,0-48.396,21.667-48.396,48.397s21.667,48.396,48.396,48.396
		c26.73,0,48.397-21.667,48.397-48.396S-420.701-89.599-447.431-89.599 M-470.706-28.26h-4.173l-9.73-27.576h3.976l7.879,23.906
		h0.079l7.954-23.906h3.825L-470.706-28.26z M-444.385-28.26h-13.321v-27.576h9.999c2.437,0,5.641,0,7.302,1.004
		c1.815,1.08,3.243,3.05,3.243,5.755c0,2.935-1.546,5.134-4.094,6.178v0.079c3.397,0.692,5.253,3.244,5.253,6.642
		C-436.003-32.124-438.899-28.26-444.385-28.26 M-433.542-28.26v-3.093l17.146-21.395h-15.833v-3.089h20.16v3.089l-17.11,21.395
		h17.573v3.093H-433.542"/>
</g>
</svg>
